<svg width="537" height="323" viewBox="0 0 537 323" fill="none" xmlns="http://www.w3.org/2000/svg">
<rect y="267" width="256" height="55" transform="rotate(-90 0 267)" fill="#EF6C4B"/>
<rect x="213" y="267" width="256" height="55" transform="rotate(-90 213 267)" fill="#EF6C4B"/>
<rect x="142" y="267" width="256" height="55" transform="rotate(-90 142 267)" fill="#EF6C4B"/>
<rect x="355" y="267" width="256" height="55" transform="rotate(-90 355 267)" fill="#EF6C4B"/>
<rect x="71" y="267" width="256" height="55" transform="rotate(-90 71 267)" fill="#EF6C4B"/>
<rect x="284" y="267" width="256" height="55" transform="rotate(-90 284 267)" fill="#EF6C4B"/>
<path d="M27 323L17.4737 239H36.5263L27 323Z" fill="#EF6C4B"/>
<path d="M169 323L159.474 239H178.526L169 323Z" fill="#EF6C4B"/>
<path d="M98 323L88.4737 239H107.526L98 323Z" fill="#EF6C4B"/>
<path d="M241 323L231.474 239H250.526L241 323Z" fill="#EF6C4B"/>
<path d="M383 323L373.474 239H392.526L383 323Z" fill="#EF6C4B"/>
<rect x="426" y="267" width="121" height="55" transform="rotate(-90 426 267)" fill="#EF6C4B"/>
<rect x="434.455" y="110.325" width="121.866" height="55" transform="rotate(-64.8633 434.455 110.325)" fill="#89D2DE"/>
<path d="M454 323L444.474 239H463.526L454 323Z" fill="#EF6C4B"/>
<path d="M312 323L302.474 239H321.526L312 323Z" fill="#EF6C4B"/>
</svg>
