<svg width="348" height="344" viewBox="0 0 348 344" fill="none" xmlns="http://www.w3.org/2000/svg">
<circle cx="163.885" cy="163.885" r="163.885" fill="#62329F"/>
<path d="M332.594 332.062L253.777 255.605L280.21 235.554L332.594 332.062Z" fill="#62329F"/>
<mask id="mask0_30_396" style="mask-type:alpha" maskUnits="userSpaceOnUse" x="0" y="0" width="333" height="333">
<circle cx="163.885" cy="163.885" r="163.885" fill="#62329F"/>
<path d="M332.594 332.062L253.777 255.605L280.21 235.554L332.594 332.062Z" fill="#62329F"/>
</mask>
<g mask="url(#mask0_30_396)">
<path d="M-51.9325 80.351C-51.8813 80.2448 -51.8302 80.1386 -6.52491 44.5769C38.7804 9.0152 129.338 -61.9987 188.862 -105.54C248.386 -149.081 274.132 -162.997 291.249 -171.379C308.366 -179.761 316.075 -182.186 319.297 -182.189C322.518 -182.193 321.02 -179.7 262.839 -89.0429C204.659 1.61466 89.842 180.362 30.0234 273.834C-29.7953 367.305 -31.1368 370.085 -32.5999 373.878C-34.063 377.671 -35.6071 382.394 -36.1449 382.088C-36.6826 381.782 -36.1673 376.304 -17.6217 292.57C0.923955 208.836 37.4842 47.0125 57.4365 -39.2043C77.3889 -125.421 79.6253 -131.127 81.1413 -132.888C82.6573 -134.648 83.3851 -132.29 81.5118 -34.8863C79.6384 62.517 75.1419 254.894 72.9327 353.017C70.7235 451.141 70.9379 449.182 96.033 377.603C121.128 306.024 171.097 164.886 198.489 88.9372C225.881 12.9888 229.182 6.50755 234.588 -2.0467C239.994 -10.601 247.406 -21.0319 252.843 -28.5995C258.281 -36.1672 261.521 -40.5555 249.615 23.9383C237.709 88.432 210.558 221.941 234.923 256.955C259.288 291.969 335.99 224.443 377.649 188.316C419.307 152.189 423.597 149.508 424.861 148.206C426.125 146.905 424.232 147.064 362.634 183.509C301.036 219.954 179.789 292.679 115.663 331.47C51.5366 370.261 48.2045 372.915 45.8684 374.934C43.5323 376.953 42.2931 378.257 41.2475 379.612C40.202 380.967 39.3877 382.334 42.8353 383.058C46.2828 383.782 54.017 383.822 111.444 371.425C168.871 359.029 275.757 334.196 336.654 318.498C397.552 302.8 409.222 296.989 416.433 293.58C425.928 289.091 431.435 287.832 435.489 288.089C436.935 288.181 435.87 291.475 420.878 308.876C405.886 326.277 376.675 358.524 349.857 384.44C323.039 410.356 299.5 428.963 283.961 442.032C268.423 455.1 261.597 462.065 297.05 447.861C332.503 433.656 410.44 398.072 493.249 360.848" stroke="#F582BA" stroke-width="4" stroke-linecap="round"/>
</g>
</svg>
