<svg width="243" height="146" viewBox="0 0 243 146" fill="none" xmlns="http://www.w3.org/2000/svg">
<path d="M2.50067 5.8005C41.0007 -8.6995 75.5005 27.3005 84.5007 61.3005C93.5008 95.3005 84.5007 135.801 57.0007 135.801C29.5007 135.801 24.0008 104.3 30.0008 85.3005C36.0008 66.3005 50.5005 43.8005 84.5007 27.8005C118.501 11.8005 141.001 27.8005 155.001 36.8005C169.001 45.8005 189.001 69.3005 194.001 85.3005C199.001 101.3 198.001 126.801 186.001 135.801C174.001 144.801 156.001 144.801 147.001 135.801C138.001 126.801 132.001 109.3 138.001 85.3005C144.001 61.3005 167.001 45.8005 179.001 36.8005C191.001 27.8005 212.501 21.8005 240.501 21.8005" stroke="#3B418D" stroke-width="5" stroke-linecap="round"/>
</svg>
