<svg width="287" height="222" viewBox="0 0 287 222" fill="none" xmlns="http://www.w3.org/2000/svg">
<path d="M0 0H221V221H0V0Z" fill="#62329F"/>
<path d="M286.441 208.822L176.427 141.496L201.558 111.71L286.441 208.822Z" fill="#62329F"/>
<mask id="mask0_30_274" style="mask-type:alpha" maskUnits="userSpaceOnUse" x="0" y="1" width="287" height="221">
<path d="M0 1H221V222H0V1Z" fill="#62329F"/>
<path d="M286.441 209.822L176.427 142.496L201.558 112.71L286.441 209.822Z" fill="#62329F"/>
</mask>
<g mask="url(#mask0_30_274)">
<path d="M229.378 -76.6468C228.051 -74.2132 226.724 -71.7796 200.651 -26.6341C174.578 18.5113 123.799 106.295 99.3802 147.606C74.9614 188.917 78.4411 181.095 127.051 113.096C175.661 45.0978 269.295 -82.84 235.284 -29.005C201.272 24.83 36.7773 264.315 -48.8563 389.425C-134.49 514.534 -136.277 518.012 -61.0486 405.739C14.1802 293.466 166.48 65.3359 243.594 -51.0568C320.709 -167.45 318.024 -165.192 233.951 -56.6136C149.878 51.965 -15.5013 266.796 -1.41418 265.689C12.6729 264.581 211.238 41.0251 204.488 63.9413C197.739 86.8574 -20.3429 363.02 -19.7536 372.599C-19.1643 382.179 206.704 116.805 323.104 -22.0917C439.504 -160.989 439.59 -165.368 329.415 -53.1512C219.239 59.0653 -1.20081 288.01 -33.6411 304.099C-66.0814 320.188 96.1579 116.484 181.073 7.71121C265.988 -101.062 268.662 -108.732 207.175 -54.5877C145.689 -0.443615 19.9604 115.747 34.3124 89.1216C48.6644 62.4965 206.906 -110.465 207.317 -112.817C207.728 -115.17 45.5128 58.3271 19.7845 91.8502C-5.94388 125.373 109.731 13.6648 168.279 -44.4169C226.827 -102.499 224.744 -103.569 213.906 -98.7498C203.069 -93.931 183.539 -83.1909 128.114 -43.0014C72.6892 -2.81202 -18.0401 66.5013 -74.3284 112.685C-130.617 158.868 -149.715 179.822 -159.667 191.858C-169.619 203.893 -169.847 206.377 -103.791 154.866C-37.7348 103.355 94.6114 -2.22578 164.156 -58.0995C233.701 -113.973 236.434 -116.941 150.339 -34.3677C64.2454 48.2056 -110.758 216.41 -91.2911 202.274C-71.8238 188.138 147.418 -13.4357 259.398 -117.384C371.378 -221.332 369.452 -221.547 285.206 -144.468C200.959 -67.3891 34.4488 86.9897 -90.7657 215.661C-215.98 344.332 -294.854 442.617 -338.333 498.019C-381.812 553.42 -387.507 562.96 -254.615 429.657C-121.722 296.354 149.929 19.9198 286.13 -120.125C422.331 -260.169 414.848 -255.447 289.436 -132.843C164.024 -10.2383 -79.0909 230.105 -84.7401 242.605C-90.3892 255.105 148.794 32.4769 168.473 22.6087C188.151 12.7405 -18.9246 222.378 -30.5659 241.574C-42.2072 260.771 147.861 83.174 225.121 9.70071C302.381 -63.7726 261.074 -27.7404 196.906 41.1351C132.738 110.011 46.9607 210.638 81.0426 184.735C115.124 158.832 271.665 3.35015 350.692 -75.5692C429.718 -154.489 426.486 -152.134 359.273 -77.6305C292.06 -3.12718 160.963 143.453 78.1766 241.55C-4.61004 339.646 -35.1144 384.816 16.5282 347.366C68.1707 309.916 202.884 188.477 286.894 115.519C370.904 42.5603 400.127 21.7629 341.698 56.2686C283.27 90.7744 136.304 181.214 126.053 192.763C115.802 204.313 246.721 134.233 313.334 98.0811C379.947 61.9295 378.288 61.8304 352.011 76.5433C325.734 91.2562 274.889 120.784 213.082 166.237C151.274 211.691 80.0449 272.174 42.571 304.3C5.0971 336.425 3.53711 338.36 62.8465 285.367C122.156 232.375 242.382 124.398 287.577 80.3807C332.772 36.3634 299.292 59.5779 234.451 116.688C169.61 173.798 74.4206 264.099 22.1812 314.443C-30.0581 364.787 -36.4632 372.436 -37.9312 375.31C-39.3993 378.185 -35.736 376.052 57.519 302.465C150.774 228.878 333.51 83.9017 426.811 9.19104C520.113 -65.5196 518.443 -65.571 454.833 -21.379C391.224 22.813 265.725 111.25 162.7 192.654C59.675 274.059 -17.073 345.751 33.4641 309.033C84.0013 272.315 264.149 125.015 369.059 42.0962C473.969 -40.8222 498.182 -54.8952 512.107 -62.0302C526.032 -69.1652 528.936 -68.9358 462.097 -5.79202C395.259 57.3517 258.591 183.403 234.822 204.051C211.054 224.699 304.327 136.125 357.072 86.9596C409.817 37.7945 419.209 30.7232 380.729 67.6375C342.25 104.552 255.615 185.666 206.063 233.576C156.51 281.487 146.666 293.735 142.342 299.718C138.019 305.7 139.515 305.045 207.037 248.252C274.56 191.459 408.064 78.5489 389.93 88.9666C371.796 99.3843 197.978 236.552 108.957 306.258C19.9366 375.964 20.9809 374.051 101.171 293.371C181.362 212.69 340.666 53.2989 358.037 37.5945C375.407 21.8902 246.016 154.703 171.438 233.381C96.8593 312.06 81.0152 332.58 134.345 274.197C187.675 215.813 310.66 77.9045 375.708 4.2498C440.755 -69.4049 444.14 -74.6263 444.821 -77.7456C445.503 -80.8648 443.38 -81.7237 435.293 -78.2405C427.207 -74.7573 413.222 -66.906 346.487 -7.8064C279.753 51.2932 160.692 161.403 95.8765 222.387C31.0608 283.371 24.0977 291.892 84.3924 232.624C144.687 173.356 272.451 46.0401 341.161 -23.1237C409.872 -92.2875 415.659 -99.4415 417.177 -102.46C418.696 -105.478 415.77 -104.144 354.324 -36.9575C292.877 30.2287 172.998 163.226 110.423 232.419C47.849 301.613 46.2119 302.971 125.255 222.215C204.298 141.459 364.071 -21.4522 447.341 -106.605C530.612 -191.757 532.539 -194.215 439.118 -130.185C345.697 -66.1552 156.87 64.4365 119.335 83.6118C81.8 102.787 201.279 6.58871 259.644 -41.7834C318.008 -90.1554 311.638 -87.7861 233.865 -30.8389C156.092 26.1084 7.10857 137.562 -13.6475 146.928C-34.4036 156.295 77.5819 60.1974 134.312 10.1164C191.043 -39.9646 189.125 -41.1172 180.971 -38.768C172.817 -36.4189 158.486 -30.5331 113.321 -2.90732C68.1572 24.7185 -7.40521 73.906 -59.6527 110.496C-111.9 147.087 -138.543 169.589 -86.409 125.44C-34.2748 81.2907 97.4438 -30.192 167.974 -90.5672C238.504 -150.942 243.853 -156.832 245.971 -160.577C248.088 -164.322 246.811 -165.744 239.561 -163.173C232.312 -160.601 219.129 -153.992 164.127 -112.191C109.124 -70.3891 12.702 6.40484 10.8666 5.16232C9.0313 3.91981 104.705 -77.6862 154.452 -120.304C204.199 -162.921 205.12 -164.078 132.297 -102.022C59.474 -39.9665 -87.1214 85.3359 -171.517 159.423C-255.914 233.509 -273.668 252.584 -283.59 263.526C-293.512 274.469 -295.062 276.703 -238.982 222.01C-182.902 167.318 -69.1434 55.6312 -11.8821 -1.61143C45.3791 -58.8541 42.6959 -58.2687 36.0574 -53.9514C29.4189 -49.6342 18.9064 -41.603 -1.85492 -21.7649C-22.6162 -1.92669 -53.3077 29.4751 -77.069 57.2012C-100.83 84.9273 -116.731 108.026 -122.005 118.386C-127.28 128.746 -121.445 125.666 -75.3222 90.4763C-29.1993 55.2866 57.0353 -11.9198 52.4781 6.02046C47.921 23.9607 -50.0411 129.084 -35.2629 115.779C-20.4847 102.474 110.002 -32.4455 176.296 -102.031C242.59 -171.617 240.736 -171.78 232.845 -166.253C224.954 -160.725 211.081 -149.503 162.671 -95.2458C114.262 -40.9889 31.7362 55.9619 -19.1109 119.195C-69.9581 182.427 -86.6262 209.004 -95.4771 224.222C-104.328 239.44 -104.856 242.494 -64.4726 192.022C-24.0887 141.551 57.2237 37.4605 108.419 -31.4653C159.614 -100.391 178.227 -130.998 189.247 -150.084C200.268 -169.171 203.131 -175.809 204.446 -180.412C205.761 -185.014 205.442 -187.38 202.59 -187.511C199.739 -187.642 194.365 -185.468 185.321 -179.709C176.277 -173.951 163.726 -164.676 127.73 -129.526C91.7343 -94.3767 32.6748 -33.6342 -0.689026 1.35638C-34.0528 36.347 -39.9313 43.745 -3.81378 -0.974335C32.3037 -45.6937 110.595 -142.755 103.6 -133.865C96.6042 -124.976 1.94931 -7.19418 -50.5875 59.6238C-103.124 126.442 -110.675 138.727 -115.9 147.967C-121.126 157.206 -123.798 163.028 -121.559 163.869C-119.32 164.711 -112.089 160.396 -47.2794 105.792C17.5304 51.1871 139.7 -53.5766 148.111 -44.9074C156.522 -36.2382 47.4734 89.0385 -8.98233 154.264C-65.4381 219.49 -65.996 220.868 -3.03577 158.486C59.9245 96.1048 186.42 -30.0785 249.374 -93.2789C312.329 -156.479 307.91 -152.873 237.337 -68.9732C166.765 14.9265 30.1738 179.01 -43.2031 268.059C-116.58 357.107 -122.603 366.148 -126.913 373.096C-131.223 380.045 -133.636 384.628 -49.7047 305.527C34.2268 226.427 204.576 63.5051 254.61 19.6609C304.643 -24.1832 229.198 55.9876 189.266 98.9588C149.334 141.93 147.202 145.272 186.165 116.826C225.127 88.3803 305.251 28.0452 355.194 -7.98074C405.138 -44.0067 422.474 -53.8952 380.753 -19.9574C339.033 13.9805 237.731 92.0444 179.377 138.412C121.024 184.78 108.689 197.085 103.209 203.13C97.729 209.175 99.478 208.585 141.589 184.309C183.701 160.033 266.122 112.088 273.097 105.989C280.072 99.8899 209.103 137.089 155.523 168.332C101.943 199.576 67.9019 223.735 47.4769 239.073C27.0519 254.41 21.2745 260.193 17.4576 264.672C13.6408 269.15 11.9596 272.149 16.0562 271.737C20.1528 271.324 30.078 267.41 97.4183 228.601C164.759 189.792 289.213 116.208 308.959 123.058C328.705 129.907 239.97 219.419 187.082 274.788C134.193 330.157 119.839 348.669 113.406 357.838C106.972 367.007 108.894 366.271 158.344 318.641C207.795 271.012 304.717 176.511 317.257 172.741C329.798 168.971 255.021 258.796 215.363 306.752C175.704 354.708 173.431 358.074 197.828 329.155C222.226 300.236 273.365 238.93 303.209 201.927C333.054 164.923 340.056 154.081 345.306 145.114C360.451 119.251 361.568 108.187 361.024 105.986C360.449 103.658 352.019 111.389 324.1 153.95C299.97 190.736 260.095 261.203 238.14 298.179C216.186 335.154 214.507 337.23 215.308 334.599C216.109 331.968 219.442 324.569 259.417 270.737C299.391 216.905 375.906 116.865 454.74 13.7939" stroke="#5688E0" stroke-width="2" stroke-linecap="round"/>
</g>
</svg>
