<svg width="183" height="166" viewBox="0 0 183 166" fill="none" xmlns="http://www.w3.org/2000/svg">
<path d="M2.5 2.5C24 2.5 16.5 28.5 35 28.5C53.5 28.5 47 2.5 64.5 2.5C82 2.5 78.5 28.5 96 28.5C113.5 28.5 109.5 2.5 125.5 2.5C141.5 2.5 137 28.5 152.5 28.5C168 28.5 160 2.5 180 2.5" stroke="#62329F" stroke-width="5" stroke-linecap="round"/>
<path d="M2.5 92.5C24 92.5 16.5 118.5 35 118.5C53.5 118.5 47 92.5 64.5 92.5C82 92.5 78.5 118.5 96 118.5C113.5 118.5 109.5 92.5 125.5 92.5C141.5 92.5 137 118.5 152.5 118.5C168 118.5 160 92.5 180 92.5" stroke="#62329F" stroke-width="5" stroke-linecap="round"/>
<path d="M2.5 47.5C24 47.5 16.5 73.5 35 73.5C53.5 73.5 47 47.5 64.5 47.5C82 47.5 78.5 73.5 96 73.5C113.5 73.5 109.5 47.5 125.5 47.5C141.5 47.5 137 73.5 152.5 73.5C168 73.5 160 47.5 180 47.5" stroke="#62329F" stroke-width="5" stroke-linecap="round"/>
<path d="M2.5 137.5C24 137.5 16.5 163.5 35 163.5C53.5 163.5 47 137.5 64.5 137.5C82 137.5 78.5 163.5 96 163.5C113.5 163.5 109.5 137.5 125.5 137.5C141.5 137.5 137 163.5 152.5 163.5C168 163.5 160 137.5 180 137.5" stroke="#62329F" stroke-width="5" stroke-linecap="round"/>
</svg>
